<?xml version="1.0" standalone="no"?>
<!DOCTYPE svg PUBLIC "-//W3C//DTD SVG 20010904//EN"
 "http://www.w3.org/TR/2001/REC-SVG-20010904/DTD/svg10.dtd">
<svg version="1.0" xmlns="http://www.w3.org/2000/svg"
 width="2400.000000pt" height="1510.000000pt" viewBox="0 0 2400.000000 1510.000000"
 preserveAspectRatio="xMidYMid meet">

<g transform="translate(0.000000,1510.000000) scale(0.100000,-0.100000)"
fill="#000000" stroke="none">
<path d="M10 7550 l0 -7551 3853 4 c3528 3 3868 4 4047 20 1210 106 2171 405
2963 923 464 303 818 652 1112 1094 213 320 328 550 442 885 314 924 292 2164
-56 3083 -328 866 -903 1500 -1726 1901 -208 102 -326 150 -570 232 l-200 67
121 60 c714 358 1266 867 1573 1452 267 510 388 1152 353 1882 -18 377 -51
616 -123 908 -62 251 -136 455 -244 669 -619 1236 -1926 1844 -4103 1911 -173
5 -1869 10 -3874 10 l-3568 0 0 -7550z m6786 4960 c725 -57 1184 -224 1499
-545 154 -156 294 -393 349 -590 109 -388 97 -924 -29 -1303 -76 -226 -168
-377 -329 -537 -271 -270 -661 -447 -1146 -519 -211 -32 -541 -37 -2190 -34
l-1625 3 -3 1768 -2 1767 1674 0 c1043 0 1722 -4 1802 -10z m589 -5803 c535
-70 912 -205 1251 -448 372 -267 590 -671 669 -1239 22 -158 31 -564 16 -726
-25 -266 -82 -481 -181 -679 -83 -164 -173 -289 -310 -426 -346 -347 -863
-540 -1604 -599 -82 -6 -820 -10 -2017 -10 l-1889 0 0 2075 0 2076 1968 -4
c1773 -3 1980 -5 2097 -20z"/>
<path d="M15580 13485 l0 -845 3050 0 3050 0 0 845 0 845 -3050 0 -3050 0 0
-845z"/>
<path d="M18320 11494 c-855 -51 -1613 -254 -2310 -621 -714 -376 -1312 -882
-1782 -1508 -561 -747 -945 -1710 -1077 -2705 -82 -612 -80 -1315 5 -1940 207
-1522 937 -2843 2018 -3653 699 -524 1550 -863 2498 -996 646 -91 1385 -89
2033 5 744 107 1421 341 2007 693 839 504 1459 1291 1901 2412 64 162 167 452
167 470 0 5 -521 8 -1315 7 l-1316 -3 -42 -105 c-72 -180 -172 -325 -346 -504
-237 -243 -536 -452 -827 -579 -350 -153 -728 -227 -1163 -227 -929 0 -1635
272 -2076 801 -287 344 -469 810 -559 1429 -20 132 -46 417 -46 493 l0 57
3943 0 3944 0 6 128 c10 195 8 718 -3 897 -81 1254 -429 2352 -1033 3260 -397
596 -881 1071 -1473 1443 -671 422 -1347 644 -2216 728 -155 15 -784 27 -938
18z m690 -2273 c333 -45 631 -141 855 -276 337 -203 619 -558 826 -1040 96
-226 213 -612 264 -875 9 -47 19 -93 21 -102 5 -17 -116 -18 -2442 -18 l-2447
0 7 80 c16 194 92 539 163 743 125 362 372 719 664 963 196 163 520 346 739
417 229 74 473 115 755 126 193 7 469 -1 595 -18z"/>
</g>
</svg>
